<?xml version="1.0" encoding="UTF-8" standalone="no"?>
<svg
   xmlns:dc="http://purl.org/dc/elements/1.1/"
   xmlns:cc="http://creativecommons.org/ns#"
   xmlns:rdf="http://www.w3.org/1999/02/22-rdf-syntax-ns#"
   xmlns:svg="http://www.w3.org/2000/svg"
   xmlns="http://www.w3.org/2000/svg"
   xmlns:sodipodi="http://sodipodi.sourceforge.net/DTD/sodipodi-0.dtd"
   xmlns:inkscape="http://www.inkscape.org/namespaces/inkscape"
   width="150mm"
   height="150mm"
   viewBox="0 0 150 150"
   version="1.1"
   id="svg8"
   inkscape:version="1.0.2 (394de47547, 2021-03-26)"
   sodipodi:docname="connector.svg">
  <defs
     id="defs2">
    <clipPath
       clipPathUnits="userSpaceOnUse"
       id="clipPath86">
      <path
         id="path88"
         style="fill:#ff0000;fill-opacity:1;fill-rule:nonzero;stroke:none;stroke-width:0.264583"
         d="m 47.897336,105.20805 v 21.67361 c 0.108135,-0.11916 0.235452,-0.2379 0.394806,-0.3607 0.0757,-0.22988 0.189984,-0.44421 0.32453,-0.64854 -0.01781,-0.338 -0.05152,-0.99502 -0.0522,-1.00769 -0.09514,-1.86847 0.899343,-2.85809 1.891874,-2.91352 0.992532,-0.0554 1.983296,0.82319 1.88154,2.69131 -0.05286,0.9704 0.0558,1.94288 0.14366,2.91558 0.147887,-0.56052 0.349049,-1.12309 0.589627,-1.70635 0.576794,-1.39838 1.458942,-2.01624 2.225188,-2.02262 0.381148,-0.48846 0.882857,-0.71947 1.374077,-0.69505 0.943766,0.0469 1.844894,1.02854 1.760098,2.8975 -2.33e-4,0.005 -2.65e-4,0.008 -5.29e-4,0.0134 0.357592,5.3e-4 0.715179,0.002 1.072803,0.002 1.023221,-0.002 2.040284,-0.0294 3.062346,0.0109 1.615932,0.0394 3.226938,0.022 4.842597,0.0341 0.141319,10e-4 0.282213,0.0409 0.422714,0.0398 -0.01373,-1.95336 1.008222,-2.9921 1.990059,-2.98483 0.874117,0.006 1.715502,0.84085 1.763199,2.59416 0.01617,0.59439 0.05086,1.18875 0.04806,1.78335 -0.0019,0.41084 -0.02199,0.75567 -0.06408,1.05937 H 98.087024 V 105.2081 Z m 20.75067,20.85764 c -0.01037,1.1e-4 -0.03556,0.004 -0.05064,0.005 0.01116,0.002 0.02241,0.004 0.03359,0.007 0.0043,-5.2e-4 0.0086,-0.002 0.01291,-0.003 0.04304,-0.006 0.03775,-0.009 0.0041,-0.009 z m -1.09709,0.41548 c -0.07273,0.005 -0.161634,0.0121 -0.188103,0.0124 -0.0051,5.3e-4 -0.0098,0.002 -0.01498,0.002 0.144656,-0.007 0.208809,-0.0127 0.203089,-0.0145 z m -15.669844,0.28318 c 0.0034,-0.0488 0.0038,0.0183 -0.0088,0.2775 0.0013,0.002 0.0029,0.003 0.0041,0.005 7.94e-4,-0.11737 0.0021,-0.2462 0.0047,-0.28266 z" />
    </clipPath>
    <clipPath
       clipPathUnits="userSpaceOnUse"
       id="clipPath98">
      <path
         id="path100"
         style="fill:#ff0000;fill-opacity:1;fill-rule:nonzero;stroke:none;stroke-width:0.264583"
         d="m 97.904617,99.400651 v 5.999629 h 41.145293 c -0.15075,-0.39778 -0.24051,-0.88322 -0.24082,-1.45727 0,-0.41721 -0.002,-0.83439 -0.001,-1.2516 0.005,-0.58959 0.0161,-1.17971 -0.0155,-1.76889 -0.007,-0.43854 0.0143,-0.81965 0.10077,-1.221628 5.3e-4,-0.02458 0.002,-0.04928 5.3e-4,-0.07338 -0.006,-0.03848 -0.0267,-0.167111 -0.0362,-0.226859 z m 41.063123,0 c -0.0247,0.08466 -0.0558,0.197638 -0.063,0.255799 0.0189,-0.08373 0.0425,-0.169595 0.0667,-0.255799 z m 4.24367,4.515489 c -0.22732,0.12596 -0.44019,0.23215 -0.632,0.30954 -0.0244,0.45321 -0.10847,0.84354 -0.2341,1.1746 h 0.94103 c 0.0171,-0.4666 -0.0704,-1.00115 -0.0749,-1.48414 z" />
    </clipPath>
  </defs>
  <sodipodi:namedview
     id="base"
     pagecolor="#ffffff"
     bordercolor="#666666"
     borderopacity="1.0"
     inkscape:pageopacity="0.0"
     inkscape:pageshadow="2"
     inkscape:zoom="0.7"
     inkscape:cx="384.6209"
     inkscape:cy="554.56442"
     inkscape:document-units="mm"
     inkscape:current-layer="layer1"
     inkscape:document-rotation="0"
     showgrid="false"
     inkscape:window-width="1850"
     inkscape:window-height="1016"
     inkscape:window-x="70"
     inkscape:window-y="27"
     inkscape:window-maximized="1" />
  <metadata
     id="metadata5">
    <rdf:RDF>
      <cc:Work
         rdf:about="">
        <dc:format>image/svg+xml</dc:format>
        <dc:type
           rdf:resource="http://purl.org/dc/dcmitype/StillImage" />
        <dc:title></dc:title>
      </cc:Work>
    </rdf:RDF>
  </metadata>
  <g
     inkscape:label="Layer 1"
     inkscape:groupmode="layer"
     id="layer1">
    <path
       style="fill:none;stroke:#000000;stroke-width:0.264583px;stroke-linecap:butt;stroke-linejoin:miter;stroke-opacity:1"
       d="m 47.899809,128.45156 c 47.446388,-0.85589 32.170208,-6.36268 50.096725,-23.14686"
       id="path24"
       sodipodi:nodetypes="cc"
       clip-path="url(#clipPath86)" />
    <path
       style="fill:none;stroke:#000000;stroke-width:0.264583px;stroke-linecap:butt;stroke-linejoin:miter;stroke-opacity:1"
       d="m 97.996534,105.3047 c 8.178916,-7.866521 33.830696,-5.463022 54.287856,-5.3025"
       id="path26"
       sodipodi:nodetypes="cc"
       clip-path="url(#clipPath98)" />
  </g>
</svg>
