<?xml version="1.0" standalone="no"?>
<!DOCTYPE svg PUBLIC "-//W3C//DTD SVG 1.1//EN" "http://www.w3.org/Graphics/SVG/1.1/DTD/svg11.dtd">

<svg width="1000" height="1000" style="background:#ddd" 
  xmlns="http://www.w3.org/2000/svg"
  xmlns:xlink="http://www.w3.org/1999/xlink">


<line x1="132" y1="200" x2="262" y2="200" stroke="black"/>
<line x1="264" y1="200" x2="394" y2="200" stroke="black"/>
<line x1="396" y1="200" x2="526" y2="200" stroke="black"/>
<line x1="528" y1="200" x2="658" y2="200" stroke="black"/>
<line x1="660" y1="200" x2="790" y2="200" stroke="black"/>
<line x1="792" y1="200" x2="922" y2="200" stroke="black"/>
<line x1="187" y1="200" x2="237" y2="150" stroke="black"/>
<line x1="237" y1="150" x2="262" y2="150" stroke="black"/>
<line x1="319" y1="200" x2="369" y2="150" stroke="black"/>
<line x1="369" y1="150" x2="394" y2="150" stroke="black"/>
<line x1="451" y1="200" x2="501" y2="150" stroke="black"/>
<line x1="501" y1="150" x2="526" y2="150" stroke="black"/>
<line x1="583" y1="200" x2="633" y2="150" stroke="black"/>
<line x1="633" y1="150" x2="658" y2="150" stroke="black"/>
<line x1="715" y1="200" x2="765" y2="150" stroke="black"/>
<line x1="765" y1="150" x2="790" y2="150" stroke="black"/>
<line x1="847" y1="200" x2="897" y2="150" stroke="black"/>
<line x1="897" y1="150" x2="922" y2="150" stroke="black"/>

</svg>